G04 #@! TF.FileFunction,Soldermask,Top*
%FSLAX46Y46*%
G04 Gerber Fmt 4.6, Leading zero omitted, Abs format (unit mm)*
G04 Created by KiCad (PCBNEW 0.201510090346+6256~30~ubuntu14.04.1-product) date Son 11 Okt 2015 11:49:56 CEST*
%MOMM*%
G01*
G04 APERTURE LIST*
%ADD10C,0.200000*%
%ADD11R,1.000000X1.000000*%
%ADD12R,0.800000X0.300000*%
%ADD13R,1.000000X0.950000*%
%ADD14R,1.727200X1.727200*%
%ADD15O,1.727200X1.727200*%
%ADD16R,1.500000X1.250000*%
G04 APERTURE END LIST*
D10*
D11*
X141502000Y-110700000D03*
X141502000Y-109700000D03*
X141502000Y-108700000D03*
X144502000Y-110700000D03*
X144502000Y-109700000D03*
X144502000Y-108700000D03*
X143502000Y-110700000D03*
X143502000Y-109700000D03*
X143502000Y-108700000D03*
X142502000Y-108700000D03*
X142502000Y-110700000D03*
X142502000Y-106950000D03*
X143502000Y-106950000D03*
X141502000Y-106950000D03*
X144502000Y-106950000D03*
X141502000Y-105950000D03*
X142502000Y-105950000D03*
X143502000Y-105950000D03*
X142502000Y-109700000D03*
X144502000Y-105950000D03*
D12*
X137700000Y-87750000D03*
X137700000Y-88250000D03*
X137700000Y-88750000D03*
X137700000Y-89250000D03*
X137700000Y-89750000D03*
X137700000Y-90250000D03*
X137700000Y-90750000D03*
X137700000Y-91250000D03*
X137700000Y-91750000D03*
X137700000Y-92250000D03*
X137700000Y-92750000D03*
X137700000Y-93250000D03*
D13*
X135000000Y-86525000D03*
X135000000Y-94475000D03*
D14*
X151000000Y-95500000D03*
D15*
X148460000Y-95500000D03*
X151000000Y-92960000D03*
X148460000Y-92960000D03*
X151000000Y-90420000D03*
X148460000Y-90420000D03*
X151000000Y-87880000D03*
X148460000Y-87880000D03*
X151000000Y-85340000D03*
X148460000Y-85340000D03*
D16*
X144850000Y-95600000D03*
X142350000Y-95600000D03*
D14*
X151638000Y-109728000D03*
D15*
X151638000Y-107188000D03*
M02*
