M48
;DRILL file {KiCad 0.201509061501+6161~29~ubuntu14.04.1-product} date Sam 12 Sep 2015 09:24:54 CEST
;FORMAT={-:-/ absolute / metric / decimal}
FMAT,2
METRIC,TZ
T1C0.300
T2C0.800
T3C1.016
%
G90
G05
M71
T1
X103.124Y-115.824
X104.521Y-108.839
X105.41Y-115.951
X106.172Y-115.951
X109.22Y-113.919
X109.982Y-111.633
X109.982Y-114.554
T2
X107.95Y-122.936
X110.744Y-105.537
X111.252Y-104.14
T3
X101.6Y-124.333
X101.6Y-126.873
X104.14Y-124.333
X104.14Y-126.873
X106.045Y-102.87
X106.68Y-124.333
X106.68Y-126.873
X108.585Y-102.87
X109.22Y-124.333
X109.22Y-126.873
X111.76Y-117.475
X111.76Y-120.015
X111.76Y-124.333
X111.76Y-126.873
X113.665Y-102.87
X113.665Y-105.41
X113.665Y-107.95
X113.665Y-110.49
X113.665Y-113.03
X114.3Y-117.475
X114.3Y-120.015
X116.205Y-102.87
X116.205Y-105.41
X116.205Y-107.95
X116.205Y-110.49
X116.205Y-113.03
X116.84Y-117.475
X116.84Y-120.015
T0
M30
