G04 #@! TF.FileFunction,Copper,L1,Top,Signal*
%FSLAX46Y46*%
G04 Gerber Fmt 4.6, Leading zero omitted, Abs format (unit mm)*
G04 Created by KiCad (PCBNEW 0.201509061501+6161~29~ubuntu14.04.1-product) date Sam 12 Sep 2015 09:24:29 CEST*
%MOMM*%
G01*
G04 APERTURE LIST*
%ADD10C,0.100000*%
%ADD11R,1.250000X1.500000*%
%ADD12R,1.500000X1.250000*%
%ADD13R,1.727200X1.727200*%
%ADD14O,1.727200X1.727200*%
%ADD15R,1.300000X1.500000*%
%ADD16R,1.500000X1.300000*%
%ADD17O,0.800000X0.300000*%
%ADD18O,0.300000X0.800000*%
%ADD19C,1.000000*%
%ADD20C,0.400000*%
%ADD21C,0.750000*%
%ADD22C,0.250000*%
%ADD23C,0.254000*%
G04 APERTURE END LIST*
D10*
D11*
X101600000Y-110470000D03*
X101600000Y-107970000D03*
X101600000Y-113685000D03*
X101600000Y-116185000D03*
D12*
X106787000Y-117094000D03*
X104287000Y-117094000D03*
X106700000Y-106045000D03*
X109200000Y-106045000D03*
X106700000Y-107950000D03*
X109200000Y-107950000D03*
D13*
X111760000Y-124333000D03*
D14*
X111760000Y-126873000D03*
X109220000Y-124333000D03*
X109220000Y-126873000D03*
X106680000Y-124333000D03*
X106680000Y-126873000D03*
X104140000Y-124333000D03*
X104140000Y-126873000D03*
X101600000Y-124333000D03*
X101600000Y-126873000D03*
D13*
X106045000Y-102870000D03*
D14*
X108585000Y-102870000D03*
D13*
X113665000Y-102870000D03*
D14*
X116205000Y-102870000D03*
X113665000Y-105410000D03*
X116205000Y-105410000D03*
X113665000Y-107950000D03*
X116205000Y-107950000D03*
X113665000Y-110490000D03*
X116205000Y-110490000D03*
X113665000Y-113030000D03*
X116205000Y-113030000D03*
D15*
X116840000Y-123618000D03*
X116840000Y-126318000D03*
X114935000Y-123618000D03*
X114935000Y-126318000D03*
D16*
X108030000Y-121412000D03*
X105330000Y-121412000D03*
X108030000Y-119380000D03*
X105330000Y-119380000D03*
D17*
X104545000Y-111645000D03*
X104545000Y-112145000D03*
X104545000Y-112645000D03*
X104545000Y-113145000D03*
D18*
X105295000Y-113895000D03*
X105795000Y-113895000D03*
X106295000Y-113895000D03*
X106795000Y-113895000D03*
D17*
X107545000Y-113145000D03*
X107545000Y-112645000D03*
X107545000Y-112145000D03*
X107545000Y-111645000D03*
D18*
X106795000Y-110895000D03*
X106295000Y-110895000D03*
X105795000Y-110895000D03*
X105295000Y-110895000D03*
D13*
X116840000Y-117475000D03*
D14*
X116840000Y-120015000D03*
X114300000Y-117475000D03*
X114300000Y-120015000D03*
X111760000Y-117475000D03*
X111760000Y-120015000D03*
D19*
X107950000Y-122936000D03*
X110744000Y-105537000D03*
X111252000Y-104140000D03*
D20*
X109982000Y-114554000D03*
X109982000Y-111633000D03*
X103124000Y-115824000D03*
X109220000Y-113919000D03*
X105410000Y-115951000D03*
X104521000Y-108839000D03*
X106172000Y-115951000D03*
D21*
X108030000Y-121412000D02*
X107950000Y-121492000D01*
X107950000Y-121492000D02*
X107950000Y-122936000D01*
X108030000Y-121412000D02*
X108030000Y-119380000D01*
X116840000Y-120015000D02*
X116840000Y-123618000D01*
X116840000Y-120015000D02*
X116840000Y-117475000D01*
X114935000Y-123618000D02*
X114808000Y-123491000D01*
X114935000Y-123618000D02*
X116840000Y-123618000D01*
X101600000Y-110470000D02*
X102763000Y-110470000D01*
X102763000Y-110470000D02*
X103378000Y-109855000D01*
X103378000Y-109855000D02*
X103378000Y-103886000D01*
X103378000Y-103886000D02*
X104394000Y-102870000D01*
X104394000Y-102870000D02*
X106045000Y-102870000D01*
D22*
X104545000Y-111645000D02*
X102775000Y-111645000D01*
X102775000Y-111645000D02*
X101600000Y-110470000D01*
D21*
X101600000Y-116185000D02*
X102509000Y-117094000D01*
X102509000Y-117094000D02*
X104287000Y-117094000D01*
X101600000Y-126873000D02*
X99949000Y-125222000D01*
X99949000Y-116927000D02*
X100691000Y-116185000D01*
X99949000Y-125222000D02*
X99949000Y-116927000D01*
X111760000Y-117475000D02*
X114427000Y-114808000D01*
X114427000Y-114808000D02*
X114300000Y-114808000D01*
X111760000Y-120015000D02*
X111760000Y-117475000D01*
X113665000Y-113030000D02*
X113665000Y-114173000D01*
X113665000Y-114173000D02*
X114300000Y-114808000D01*
X117729000Y-104394000D02*
X116205000Y-102870000D01*
X114300000Y-114808000D02*
X116840000Y-114808000D01*
X116840000Y-114808000D02*
X117729000Y-113919000D01*
X117729000Y-113919000D02*
X117729000Y-104394000D01*
X109200000Y-106045000D02*
X110236000Y-106045000D01*
X111252000Y-105029000D02*
X111252000Y-104140000D01*
X111252000Y-104140000D02*
X111252000Y-101219000D01*
X110236000Y-106045000D02*
X110744000Y-105537000D01*
X110744000Y-105537000D02*
X111252000Y-105029000D01*
X109200000Y-106045000D02*
X109200000Y-107950000D01*
X101600000Y-116185000D02*
X100691000Y-116185000D01*
X100691000Y-107970000D02*
X101600000Y-107970000D01*
X100203000Y-108458000D02*
X100691000Y-107970000D01*
X100203000Y-115697000D02*
X100203000Y-108458000D01*
X100691000Y-116185000D02*
X100203000Y-115697000D01*
X116205000Y-102870000D02*
X116205000Y-101346000D01*
X116078000Y-101219000D02*
X111252000Y-101219000D01*
X116205000Y-101346000D02*
X116078000Y-101219000D01*
X111252000Y-101219000D02*
X102997000Y-101219000D01*
X101600000Y-102616000D02*
X101600000Y-107970000D01*
X102997000Y-101219000D02*
X101600000Y-102616000D01*
D22*
X107545000Y-111645000D02*
X108827000Y-111645000D01*
X109200000Y-111272000D02*
X109200000Y-111252000D01*
X109200000Y-111252000D02*
X109200000Y-109113000D01*
X108827000Y-111645000D02*
X109200000Y-111272000D01*
X105295000Y-113895000D02*
X105295000Y-115304000D01*
X105295000Y-115304000D02*
X104287000Y-116312000D01*
X104287000Y-116312000D02*
X104287000Y-117094000D01*
X104545000Y-112645000D02*
X103001000Y-112645000D01*
X102616000Y-115169000D02*
X101600000Y-116185000D01*
X102616000Y-113030000D02*
X102616000Y-115169000D01*
X103001000Y-112645000D02*
X102616000Y-113030000D01*
X106795000Y-110895000D02*
X106795000Y-109867000D01*
X109200000Y-109113000D02*
X109200000Y-107950000D01*
X108966000Y-109347000D02*
X109200000Y-109113000D01*
X107315000Y-109347000D02*
X108966000Y-109347000D01*
X106795000Y-109867000D02*
X107315000Y-109347000D01*
X104545000Y-112145000D02*
X102739000Y-112145000D01*
X102739000Y-112145000D02*
X101600000Y-113284000D01*
X101600000Y-113284000D02*
X101600000Y-113685000D01*
X106795000Y-113895000D02*
X106795000Y-117086000D01*
X106795000Y-117086000D02*
X106787000Y-117094000D01*
D21*
X106700000Y-106045000D02*
X106700000Y-105263000D01*
X108585000Y-104013000D02*
X108585000Y-102870000D01*
X108077000Y-104521000D02*
X108585000Y-104013000D01*
X107442000Y-104521000D02*
X108077000Y-104521000D01*
X106700000Y-105263000D02*
X107442000Y-104521000D01*
X106700000Y-106045000D02*
X106700000Y-107950000D01*
D22*
X106295000Y-110895000D02*
X106295000Y-109605000D01*
X106700000Y-109200000D02*
X106700000Y-106045000D01*
X106295000Y-109605000D02*
X106700000Y-109200000D01*
X111760000Y-124333000D02*
X111760000Y-122936000D01*
X109982000Y-111633000D02*
X110045500Y-111569500D01*
X109982000Y-120650000D02*
X109982000Y-114554000D01*
X111760000Y-122428000D02*
X109982000Y-120650000D01*
X111760000Y-122936000D02*
X111760000Y-122428000D01*
X107545000Y-112145000D02*
X109470000Y-112145000D01*
X112395000Y-105410000D02*
X113665000Y-105410000D01*
X110363000Y-107442000D02*
X112395000Y-105410000D01*
X110363000Y-111252000D02*
X110363000Y-107442000D01*
X109470000Y-112145000D02*
X110045500Y-111569500D01*
X110045500Y-111569500D02*
X110363000Y-111252000D01*
X111760000Y-126873000D02*
X112522000Y-127635000D01*
X116840000Y-127381000D02*
X116840000Y-126318000D01*
X116586000Y-127635000D02*
X116840000Y-127381000D01*
X116332000Y-127635000D02*
X116586000Y-127635000D01*
X112522000Y-127635000D02*
X116332000Y-127635000D01*
X109220000Y-124333000D02*
X109531998Y-124021002D01*
X109531998Y-124021002D02*
X109531998Y-115119998D01*
X109531998Y-115119998D02*
X108585000Y-114173000D01*
X108585000Y-114173000D02*
X108585000Y-113145000D01*
X108585000Y-113145000D02*
X108585000Y-113157000D01*
X108585000Y-113157000D02*
X108585000Y-113145000D01*
X113665000Y-107950000D02*
X112014000Y-107950000D01*
X112014000Y-107950000D02*
X111379000Y-108585000D01*
X111379000Y-108585000D02*
X111379000Y-112204500D01*
X111379000Y-112204500D02*
X110438500Y-113145000D01*
X110438500Y-113145000D02*
X108585000Y-113145000D01*
X108585000Y-113145000D02*
X107545000Y-113145000D01*
X109220000Y-113145000D02*
X109220000Y-113157000D01*
X109220000Y-113157000D02*
X109220000Y-113145000D01*
X107545000Y-113145000D02*
X109220000Y-113145000D01*
X111379000Y-108585000D02*
X112014000Y-107950000D01*
X112014000Y-107950000D02*
X113665000Y-107950000D01*
X111379000Y-108585000D02*
X112014000Y-107950000D01*
X109220000Y-126873000D02*
X110490000Y-125603000D01*
X113665000Y-126238000D02*
X114855000Y-126238000D01*
X113030000Y-125603000D02*
X113665000Y-126238000D01*
X110490000Y-125603000D02*
X113030000Y-125603000D01*
X114855000Y-126238000D02*
X114935000Y-126318000D01*
X104545000Y-113145000D02*
X103332002Y-113145000D01*
X103124000Y-113353002D02*
X103124000Y-115824000D01*
X103332002Y-113145000D02*
X103124000Y-113353002D01*
X106680000Y-126873000D02*
X105410000Y-125603000D01*
X105410000Y-125603000D02*
X105410000Y-121492000D01*
X105410000Y-121492000D02*
X105330000Y-121412000D01*
X116205000Y-110490000D02*
X114935000Y-111760000D01*
X112649000Y-111760000D02*
X110490000Y-113919000D01*
X114935000Y-111760000D02*
X112649000Y-111760000D01*
X109220000Y-113919000D02*
X110490000Y-113919000D01*
X105795000Y-115566000D02*
X105795000Y-113895000D01*
X105410000Y-115951000D02*
X105795000Y-115566000D01*
X104140000Y-126873000D02*
X102870000Y-125603000D01*
X104140000Y-119380000D02*
X105330000Y-119380000D01*
X102870000Y-120650000D02*
X104140000Y-119380000D01*
X102870000Y-120904000D02*
X102870000Y-120650000D01*
X102870000Y-125603000D02*
X102870000Y-120904000D01*
X105295000Y-109613000D02*
X104521000Y-108839000D01*
X105295000Y-109613000D02*
X105295000Y-110895000D01*
X106295000Y-113895000D02*
X106295000Y-115828000D01*
X106295000Y-115828000D02*
X106172000Y-115951000D01*
X106295000Y-113895000D02*
X106299000Y-113899000D01*
X107545000Y-112645000D02*
X109922500Y-112645000D01*
X114935000Y-106680000D02*
X116205000Y-105410000D01*
X112204500Y-106680000D02*
X114935000Y-106680000D01*
X110871000Y-108013500D02*
X112204500Y-106680000D01*
X110871000Y-111696500D02*
X110871000Y-108013500D01*
X109922500Y-112645000D02*
X110871000Y-111696500D01*
D23*
G36*
X118265000Y-116311183D02*
X118167690Y-116159959D01*
X117955490Y-116014969D01*
X117703600Y-115963960D01*
X115976400Y-115963960D01*
X115741083Y-116008238D01*
X115524959Y-116147310D01*
X115379969Y-116359510D01*
X115371136Y-116403131D01*
X115359670Y-116385971D01*
X114873489Y-116061115D01*
X114300000Y-115947041D01*
X113726511Y-116061115D01*
X113240330Y-116385971D01*
X113024336Y-116709228D01*
X112966821Y-116586510D01*
X112534947Y-116192312D01*
X112119026Y-116020042D01*
X111887000Y-116141183D01*
X111887000Y-117348000D01*
X111907000Y-117348000D01*
X111907000Y-117602000D01*
X111887000Y-117602000D01*
X111887000Y-119888000D01*
X111907000Y-119888000D01*
X111907000Y-120142000D01*
X111887000Y-120142000D01*
X111887000Y-120162000D01*
X111633000Y-120162000D01*
X111633000Y-120142000D01*
X111613000Y-120142000D01*
X111613000Y-119888000D01*
X111633000Y-119888000D01*
X111633000Y-117602000D01*
X111613000Y-117602000D01*
X111613000Y-117348000D01*
X111633000Y-117348000D01*
X111633000Y-116141183D01*
X111400974Y-116020042D01*
X110985053Y-116192312D01*
X110742000Y-116414161D01*
X110742000Y-114901091D01*
X110816855Y-114720821D01*
X110816963Y-114597011D01*
X111027401Y-114456401D01*
X112326800Y-113157002D01*
X112331182Y-113157002D01*
X112210042Y-113389026D01*
X112382312Y-113804947D01*
X112776510Y-114236821D01*
X113305973Y-114484968D01*
X113538000Y-114364469D01*
X113538000Y-113157000D01*
X113518000Y-113157000D01*
X113518000Y-112903000D01*
X113538000Y-112903000D01*
X113538000Y-112883000D01*
X113792000Y-112883000D01*
X113792000Y-112903000D01*
X113812000Y-112903000D01*
X113812000Y-113157000D01*
X113792000Y-113157000D01*
X113792000Y-114364469D01*
X114024027Y-114484968D01*
X114553490Y-114236821D01*
X114935008Y-113818839D01*
X115115971Y-114089670D01*
X115602152Y-114414526D01*
X116175641Y-114528600D01*
X116234359Y-114528600D01*
X116807848Y-114414526D01*
X117294029Y-114089670D01*
X117618885Y-113603489D01*
X117732959Y-113030000D01*
X117618885Y-112456511D01*
X117294029Y-111970330D01*
X116979248Y-111760000D01*
X117294029Y-111549670D01*
X117618885Y-111063489D01*
X117732959Y-110490000D01*
X117618885Y-109916511D01*
X117294029Y-109430330D01*
X116979248Y-109220000D01*
X117294029Y-109009670D01*
X117618885Y-108523489D01*
X117732959Y-107950000D01*
X117618885Y-107376511D01*
X117294029Y-106890330D01*
X116979248Y-106680000D01*
X117294029Y-106469670D01*
X117618885Y-105983489D01*
X117732959Y-105410000D01*
X117618885Y-104836511D01*
X117294029Y-104350330D01*
X116970772Y-104134336D01*
X117093490Y-104076821D01*
X117487688Y-103644947D01*
X117659958Y-103229026D01*
X117538817Y-102997000D01*
X116332000Y-102997000D01*
X116332000Y-103017000D01*
X116078000Y-103017000D01*
X116078000Y-102997000D01*
X116058000Y-102997000D01*
X116058000Y-102743000D01*
X116078000Y-102743000D01*
X116078000Y-101535531D01*
X116332000Y-101535531D01*
X116332000Y-102743000D01*
X117538817Y-102743000D01*
X117659958Y-102510974D01*
X117487688Y-102095053D01*
X117093490Y-101663179D01*
X116564027Y-101415032D01*
X116332000Y-101535531D01*
X116078000Y-101535531D01*
X115845973Y-101415032D01*
X115316510Y-101663179D01*
X115146505Y-101849433D01*
X115131762Y-101771083D01*
X114992690Y-101554959D01*
X114780490Y-101409969D01*
X114528600Y-101358960D01*
X112801400Y-101358960D01*
X112566083Y-101403238D01*
X112349959Y-101542310D01*
X112204969Y-101754510D01*
X112153960Y-102006400D01*
X112153960Y-103733600D01*
X112198238Y-103968917D01*
X112337310Y-104185041D01*
X112549510Y-104330031D01*
X112593131Y-104338864D01*
X112575971Y-104350330D01*
X112372785Y-104654419D01*
X112104161Y-104707852D01*
X111857599Y-104872599D01*
X110492224Y-106237974D01*
X110426250Y-106172000D01*
X109327000Y-106172000D01*
X109327000Y-107823000D01*
X109347000Y-107823000D01*
X109347000Y-108077000D01*
X109327000Y-108077000D01*
X109327000Y-109051250D01*
X109485750Y-109210000D01*
X109603000Y-109210000D01*
X109603000Y-110886128D01*
X109509628Y-110924708D01*
X109274534Y-111159393D01*
X109199071Y-111341127D01*
X109155198Y-111385000D01*
X108915200Y-111385000D01*
X108915200Y-109651800D01*
X108905194Y-109602390D01*
X108876753Y-109560765D01*
X108834359Y-109533485D01*
X108788200Y-109524800D01*
X107379456Y-109524800D01*
X107402147Y-109490840D01*
X107402148Y-109490839D01*
X107455752Y-109221358D01*
X107685317Y-109178162D01*
X107901441Y-109039090D01*
X107947969Y-108970994D01*
X108090302Y-109113327D01*
X108323691Y-109210000D01*
X108914250Y-109210000D01*
X109073000Y-109051250D01*
X109073000Y-108077000D01*
X109053000Y-108077000D01*
X109053000Y-107823000D01*
X109073000Y-107823000D01*
X109073000Y-106172000D01*
X109053000Y-106172000D01*
X109053000Y-105918000D01*
X109073000Y-105918000D01*
X109073000Y-105898000D01*
X109327000Y-105898000D01*
X109327000Y-105918000D01*
X110426250Y-105918000D01*
X110585000Y-105759250D01*
X110585000Y-105293690D01*
X110488327Y-105060301D01*
X110309698Y-104881673D01*
X110076309Y-104785000D01*
X109485750Y-104785000D01*
X109327002Y-104943748D01*
X109327002Y-104785000D01*
X109241356Y-104785000D01*
X109299178Y-104727178D01*
X109518118Y-104399511D01*
X109595000Y-104013000D01*
X109595000Y-103982476D01*
X109674029Y-103929670D01*
X109998885Y-103443489D01*
X110112959Y-102870000D01*
X109998885Y-102296511D01*
X109674029Y-101810330D01*
X109187848Y-101485474D01*
X108614359Y-101371400D01*
X108555641Y-101371400D01*
X107982152Y-101485474D01*
X107516558Y-101796574D01*
X107511762Y-101771083D01*
X107372690Y-101554959D01*
X107160490Y-101409969D01*
X106908600Y-101358960D01*
X105181400Y-101358960D01*
X104946083Y-101403238D01*
X104729959Y-101542310D01*
X104584969Y-101754510D01*
X104563607Y-101860000D01*
X104394000Y-101860000D01*
X104007490Y-101936882D01*
X103679822Y-102155822D01*
X102663822Y-103171822D01*
X102444882Y-103499490D01*
X102368000Y-103886000D01*
X102368000Y-106591913D01*
X102351310Y-106585000D01*
X101885750Y-106585000D01*
X101727000Y-106743750D01*
X101727000Y-107843000D01*
X101747000Y-107843000D01*
X101747000Y-108097000D01*
X101727000Y-108097000D01*
X101727000Y-108117000D01*
X101473000Y-108117000D01*
X101473000Y-108097000D01*
X100498750Y-108097000D01*
X100340000Y-108255750D01*
X100340000Y-108846309D01*
X100436673Y-109079698D01*
X100577910Y-109220936D01*
X100523559Y-109255910D01*
X100378569Y-109468110D01*
X100327560Y-109720000D01*
X100327560Y-111220000D01*
X100371838Y-111455317D01*
X100510910Y-111671441D01*
X100723110Y-111816431D01*
X100975000Y-111867440D01*
X101922638Y-111867440D01*
X101932198Y-111877000D01*
X101521638Y-112287560D01*
X100975000Y-112287560D01*
X100739683Y-112331838D01*
X100523559Y-112470910D01*
X100378569Y-112683110D01*
X100327560Y-112935000D01*
X100327560Y-114435000D01*
X100371838Y-114670317D01*
X100510910Y-114886441D01*
X100579006Y-114932969D01*
X100436673Y-115075302D01*
X100340000Y-115308691D01*
X100340000Y-115899250D01*
X100498750Y-116058000D01*
X101473000Y-116058000D01*
X101473000Y-116038000D01*
X101727000Y-116038000D01*
X101727000Y-116058000D01*
X101747000Y-116058000D01*
X101747000Y-116312000D01*
X101727000Y-116312000D01*
X101727000Y-117411250D01*
X101885750Y-117570000D01*
X102351310Y-117570000D01*
X102584699Y-117473327D01*
X102763327Y-117294698D01*
X102860000Y-117061309D01*
X102860000Y-116618503D01*
X102902000Y-116635943D01*
X102902000Y-116808250D01*
X103060750Y-116967000D01*
X104160000Y-116967000D01*
X104160000Y-115992750D01*
X104001250Y-115834000D01*
X103958992Y-115834000D01*
X103959145Y-115658637D01*
X103884000Y-115476771D01*
X103884000Y-115265200D01*
X104915097Y-115265200D01*
X104702534Y-115477393D01*
X104575145Y-115784179D01*
X104575102Y-115834000D01*
X104572750Y-115834000D01*
X104414000Y-115992750D01*
X104414000Y-116967000D01*
X104434000Y-116967000D01*
X104434000Y-117221000D01*
X104414000Y-117221000D01*
X104414000Y-117241000D01*
X104160000Y-117241000D01*
X104160000Y-117221000D01*
X103060750Y-117221000D01*
X102902000Y-117379750D01*
X102902000Y-117845310D01*
X102998673Y-118078699D01*
X103177302Y-118257327D01*
X103410691Y-118354000D01*
X104001250Y-118354000D01*
X104159998Y-118195252D01*
X104159998Y-118245680D01*
X104128559Y-118265910D01*
X103983569Y-118478110D01*
X103947064Y-118658378D01*
X103849160Y-118677852D01*
X103602599Y-118842599D01*
X102332599Y-120112599D01*
X102167852Y-120359161D01*
X102110000Y-120650000D01*
X102110000Y-122906486D01*
X101600000Y-122805041D01*
X101026511Y-122919115D01*
X100540330Y-123243971D01*
X100215474Y-123730152D01*
X100101400Y-124303641D01*
X100101400Y-124362359D01*
X100215474Y-124935848D01*
X100540330Y-125422029D01*
X100811161Y-125602992D01*
X100393179Y-125984510D01*
X100145032Y-126513973D01*
X100265531Y-126746000D01*
X101473000Y-126746000D01*
X101473000Y-126726000D01*
X101727000Y-126726000D01*
X101727000Y-126746000D01*
X101747000Y-126746000D01*
X101747000Y-127000000D01*
X101727000Y-127000000D01*
X101727000Y-128206817D01*
X101959026Y-128327958D01*
X102374947Y-128155688D01*
X102806821Y-127761490D01*
X102864336Y-127638772D01*
X103080330Y-127962029D01*
X103566511Y-128286885D01*
X104140000Y-128400959D01*
X104713489Y-128286885D01*
X105199670Y-127962029D01*
X105410000Y-127647248D01*
X105620330Y-127962029D01*
X106106511Y-128286885D01*
X106680000Y-128400959D01*
X107253489Y-128286885D01*
X107739670Y-127962029D01*
X107950000Y-127647248D01*
X108160330Y-127962029D01*
X108646511Y-128286885D01*
X109220000Y-128400959D01*
X109793489Y-128286885D01*
X110279670Y-127962029D01*
X110490000Y-127647248D01*
X110700330Y-127962029D01*
X111186511Y-128286885D01*
X111760000Y-128400959D01*
X112196668Y-128314100D01*
X112231161Y-128337148D01*
X112522000Y-128395000D01*
X116586000Y-128395000D01*
X116876839Y-128337148D01*
X117123401Y-128172401D01*
X117377401Y-127918401D01*
X117516325Y-127710487D01*
X117725317Y-127671162D01*
X117941441Y-127532090D01*
X118086431Y-127319890D01*
X118137440Y-127068000D01*
X118137440Y-125568000D01*
X118093162Y-125332683D01*
X117954090Y-125116559D01*
X117741890Y-124971569D01*
X117728803Y-124968919D01*
X117941441Y-124832090D01*
X118086431Y-124619890D01*
X118137440Y-124368000D01*
X118137440Y-122868000D01*
X118093162Y-122632683D01*
X117954090Y-122416559D01*
X117850000Y-122345437D01*
X117850000Y-121137217D01*
X117899670Y-121104029D01*
X118224526Y-120617848D01*
X118265000Y-120414371D01*
X118265000Y-128765000D01*
X99735000Y-128765000D01*
X99735000Y-127232027D01*
X100145032Y-127232027D01*
X100393179Y-127761490D01*
X100825053Y-128155688D01*
X101240974Y-128327958D01*
X101473000Y-128206817D01*
X101473000Y-127000000D01*
X100265531Y-127000000D01*
X100145032Y-127232027D01*
X99735000Y-127232027D01*
X99735000Y-116470750D01*
X100340000Y-116470750D01*
X100340000Y-117061309D01*
X100436673Y-117294698D01*
X100615301Y-117473327D01*
X100848690Y-117570000D01*
X101314250Y-117570000D01*
X101473000Y-117411250D01*
X101473000Y-116312000D01*
X100498750Y-116312000D01*
X100340000Y-116470750D01*
X99735000Y-116470750D01*
X99735000Y-107093691D01*
X100340000Y-107093691D01*
X100340000Y-107684250D01*
X100498750Y-107843000D01*
X101473000Y-107843000D01*
X101473000Y-106743750D01*
X101314250Y-106585000D01*
X100848690Y-106585000D01*
X100615301Y-106681673D01*
X100436673Y-106860302D01*
X100340000Y-107093691D01*
X99735000Y-107093691D01*
X99735000Y-100735000D01*
X118265000Y-100735000D01*
X118265000Y-116311183D01*
X118265000Y-116311183D01*
G37*
X118265000Y-116311183D02*
X118167690Y-116159959D01*
X117955490Y-116014969D01*
X117703600Y-115963960D01*
X115976400Y-115963960D01*
X115741083Y-116008238D01*
X115524959Y-116147310D01*
X115379969Y-116359510D01*
X115371136Y-116403131D01*
X115359670Y-116385971D01*
X114873489Y-116061115D01*
X114300000Y-115947041D01*
X113726511Y-116061115D01*
X113240330Y-116385971D01*
X113024336Y-116709228D01*
X112966821Y-116586510D01*
X112534947Y-116192312D01*
X112119026Y-116020042D01*
X111887000Y-116141183D01*
X111887000Y-117348000D01*
X111907000Y-117348000D01*
X111907000Y-117602000D01*
X111887000Y-117602000D01*
X111887000Y-119888000D01*
X111907000Y-119888000D01*
X111907000Y-120142000D01*
X111887000Y-120142000D01*
X111887000Y-120162000D01*
X111633000Y-120162000D01*
X111633000Y-120142000D01*
X111613000Y-120142000D01*
X111613000Y-119888000D01*
X111633000Y-119888000D01*
X111633000Y-117602000D01*
X111613000Y-117602000D01*
X111613000Y-117348000D01*
X111633000Y-117348000D01*
X111633000Y-116141183D01*
X111400974Y-116020042D01*
X110985053Y-116192312D01*
X110742000Y-116414161D01*
X110742000Y-114901091D01*
X110816855Y-114720821D01*
X110816963Y-114597011D01*
X111027401Y-114456401D01*
X112326800Y-113157002D01*
X112331182Y-113157002D01*
X112210042Y-113389026D01*
X112382312Y-113804947D01*
X112776510Y-114236821D01*
X113305973Y-114484968D01*
X113538000Y-114364469D01*
X113538000Y-113157000D01*
X113518000Y-113157000D01*
X113518000Y-112903000D01*
X113538000Y-112903000D01*
X113538000Y-112883000D01*
X113792000Y-112883000D01*
X113792000Y-112903000D01*
X113812000Y-112903000D01*
X113812000Y-113157000D01*
X113792000Y-113157000D01*
X113792000Y-114364469D01*
X114024027Y-114484968D01*
X114553490Y-114236821D01*
X114935008Y-113818839D01*
X115115971Y-114089670D01*
X115602152Y-114414526D01*
X116175641Y-114528600D01*
X116234359Y-114528600D01*
X116807848Y-114414526D01*
X117294029Y-114089670D01*
X117618885Y-113603489D01*
X117732959Y-113030000D01*
X117618885Y-112456511D01*
X117294029Y-111970330D01*
X116979248Y-111760000D01*
X117294029Y-111549670D01*
X117618885Y-111063489D01*
X117732959Y-110490000D01*
X117618885Y-109916511D01*
X117294029Y-109430330D01*
X116979248Y-109220000D01*
X117294029Y-109009670D01*
X117618885Y-108523489D01*
X117732959Y-107950000D01*
X117618885Y-107376511D01*
X117294029Y-106890330D01*
X116979248Y-106680000D01*
X117294029Y-106469670D01*
X117618885Y-105983489D01*
X117732959Y-105410000D01*
X117618885Y-104836511D01*
X117294029Y-104350330D01*
X116970772Y-104134336D01*
X117093490Y-104076821D01*
X117487688Y-103644947D01*
X117659958Y-103229026D01*
X117538817Y-102997000D01*
X116332000Y-102997000D01*
X116332000Y-103017000D01*
X116078000Y-103017000D01*
X116078000Y-102997000D01*
X116058000Y-102997000D01*
X116058000Y-102743000D01*
X116078000Y-102743000D01*
X116078000Y-101535531D01*
X116332000Y-101535531D01*
X116332000Y-102743000D01*
X117538817Y-102743000D01*
X117659958Y-102510974D01*
X117487688Y-102095053D01*
X117093490Y-101663179D01*
X116564027Y-101415032D01*
X116332000Y-101535531D01*
X116078000Y-101535531D01*
X115845973Y-101415032D01*
X115316510Y-101663179D01*
X115146505Y-101849433D01*
X115131762Y-101771083D01*
X114992690Y-101554959D01*
X114780490Y-101409969D01*
X114528600Y-101358960D01*
X112801400Y-101358960D01*
X112566083Y-101403238D01*
X112349959Y-101542310D01*
X112204969Y-101754510D01*
X112153960Y-102006400D01*
X112153960Y-103733600D01*
X112198238Y-103968917D01*
X112337310Y-104185041D01*
X112549510Y-104330031D01*
X112593131Y-104338864D01*
X112575971Y-104350330D01*
X112372785Y-104654419D01*
X112104161Y-104707852D01*
X111857599Y-104872599D01*
X110492224Y-106237974D01*
X110426250Y-106172000D01*
X109327000Y-106172000D01*
X109327000Y-107823000D01*
X109347000Y-107823000D01*
X109347000Y-108077000D01*
X109327000Y-108077000D01*
X109327000Y-109051250D01*
X109485750Y-109210000D01*
X109603000Y-109210000D01*
X109603000Y-110886128D01*
X109509628Y-110924708D01*
X109274534Y-111159393D01*
X109199071Y-111341127D01*
X109155198Y-111385000D01*
X108915200Y-111385000D01*
X108915200Y-109651800D01*
X108905194Y-109602390D01*
X108876753Y-109560765D01*
X108834359Y-109533485D01*
X108788200Y-109524800D01*
X107379456Y-109524800D01*
X107402147Y-109490840D01*
X107402148Y-109490839D01*
X107455752Y-109221358D01*
X107685317Y-109178162D01*
X107901441Y-109039090D01*
X107947969Y-108970994D01*
X108090302Y-109113327D01*
X108323691Y-109210000D01*
X108914250Y-109210000D01*
X109073000Y-109051250D01*
X109073000Y-108077000D01*
X109053000Y-108077000D01*
X109053000Y-107823000D01*
X109073000Y-107823000D01*
X109073000Y-106172000D01*
X109053000Y-106172000D01*
X109053000Y-105918000D01*
X109073000Y-105918000D01*
X109073000Y-105898000D01*
X109327000Y-105898000D01*
X109327000Y-105918000D01*
X110426250Y-105918000D01*
X110585000Y-105759250D01*
X110585000Y-105293690D01*
X110488327Y-105060301D01*
X110309698Y-104881673D01*
X110076309Y-104785000D01*
X109485750Y-104785000D01*
X109327002Y-104943748D01*
X109327002Y-104785000D01*
X109241356Y-104785000D01*
X109299178Y-104727178D01*
X109518118Y-104399511D01*
X109595000Y-104013000D01*
X109595000Y-103982476D01*
X109674029Y-103929670D01*
X109998885Y-103443489D01*
X110112959Y-102870000D01*
X109998885Y-102296511D01*
X109674029Y-101810330D01*
X109187848Y-101485474D01*
X108614359Y-101371400D01*
X108555641Y-101371400D01*
X107982152Y-101485474D01*
X107516558Y-101796574D01*
X107511762Y-101771083D01*
X107372690Y-101554959D01*
X107160490Y-101409969D01*
X106908600Y-101358960D01*
X105181400Y-101358960D01*
X104946083Y-101403238D01*
X104729959Y-101542310D01*
X104584969Y-101754510D01*
X104563607Y-101860000D01*
X104394000Y-101860000D01*
X104007490Y-101936882D01*
X103679822Y-102155822D01*
X102663822Y-103171822D01*
X102444882Y-103499490D01*
X102368000Y-103886000D01*
X102368000Y-106591913D01*
X102351310Y-106585000D01*
X101885750Y-106585000D01*
X101727000Y-106743750D01*
X101727000Y-107843000D01*
X101747000Y-107843000D01*
X101747000Y-108097000D01*
X101727000Y-108097000D01*
X101727000Y-108117000D01*
X101473000Y-108117000D01*
X101473000Y-108097000D01*
X100498750Y-108097000D01*
X100340000Y-108255750D01*
X100340000Y-108846309D01*
X100436673Y-109079698D01*
X100577910Y-109220936D01*
X100523559Y-109255910D01*
X100378569Y-109468110D01*
X100327560Y-109720000D01*
X100327560Y-111220000D01*
X100371838Y-111455317D01*
X100510910Y-111671441D01*
X100723110Y-111816431D01*
X100975000Y-111867440D01*
X101922638Y-111867440D01*
X101932198Y-111877000D01*
X101521638Y-112287560D01*
X100975000Y-112287560D01*
X100739683Y-112331838D01*
X100523559Y-112470910D01*
X100378569Y-112683110D01*
X100327560Y-112935000D01*
X100327560Y-114435000D01*
X100371838Y-114670317D01*
X100510910Y-114886441D01*
X100579006Y-114932969D01*
X100436673Y-115075302D01*
X100340000Y-115308691D01*
X100340000Y-115899250D01*
X100498750Y-116058000D01*
X101473000Y-116058000D01*
X101473000Y-116038000D01*
X101727000Y-116038000D01*
X101727000Y-116058000D01*
X101747000Y-116058000D01*
X101747000Y-116312000D01*
X101727000Y-116312000D01*
X101727000Y-117411250D01*
X101885750Y-117570000D01*
X102351310Y-117570000D01*
X102584699Y-117473327D01*
X102763327Y-117294698D01*
X102860000Y-117061309D01*
X102860000Y-116618503D01*
X102902000Y-116635943D01*
X102902000Y-116808250D01*
X103060750Y-116967000D01*
X104160000Y-116967000D01*
X104160000Y-115992750D01*
X104001250Y-115834000D01*
X103958992Y-115834000D01*
X103959145Y-115658637D01*
X103884000Y-115476771D01*
X103884000Y-115265200D01*
X104915097Y-115265200D01*
X104702534Y-115477393D01*
X104575145Y-115784179D01*
X104575102Y-115834000D01*
X104572750Y-115834000D01*
X104414000Y-115992750D01*
X104414000Y-116967000D01*
X104434000Y-116967000D01*
X104434000Y-117221000D01*
X104414000Y-117221000D01*
X104414000Y-117241000D01*
X104160000Y-117241000D01*
X104160000Y-117221000D01*
X103060750Y-117221000D01*
X102902000Y-117379750D01*
X102902000Y-117845310D01*
X102998673Y-118078699D01*
X103177302Y-118257327D01*
X103410691Y-118354000D01*
X104001250Y-118354000D01*
X104159998Y-118195252D01*
X104159998Y-118245680D01*
X104128559Y-118265910D01*
X103983569Y-118478110D01*
X103947064Y-118658378D01*
X103849160Y-118677852D01*
X103602599Y-118842599D01*
X102332599Y-120112599D01*
X102167852Y-120359161D01*
X102110000Y-120650000D01*
X102110000Y-122906486D01*
X101600000Y-122805041D01*
X101026511Y-122919115D01*
X100540330Y-123243971D01*
X100215474Y-123730152D01*
X100101400Y-124303641D01*
X100101400Y-124362359D01*
X100215474Y-124935848D01*
X100540330Y-125422029D01*
X100811161Y-125602992D01*
X100393179Y-125984510D01*
X100145032Y-126513973D01*
X100265531Y-126746000D01*
X101473000Y-126746000D01*
X101473000Y-126726000D01*
X101727000Y-126726000D01*
X101727000Y-126746000D01*
X101747000Y-126746000D01*
X101747000Y-127000000D01*
X101727000Y-127000000D01*
X101727000Y-128206817D01*
X101959026Y-128327958D01*
X102374947Y-128155688D01*
X102806821Y-127761490D01*
X102864336Y-127638772D01*
X103080330Y-127962029D01*
X103566511Y-128286885D01*
X104140000Y-128400959D01*
X104713489Y-128286885D01*
X105199670Y-127962029D01*
X105410000Y-127647248D01*
X105620330Y-127962029D01*
X106106511Y-128286885D01*
X106680000Y-128400959D01*
X107253489Y-128286885D01*
X107739670Y-127962029D01*
X107950000Y-127647248D01*
X108160330Y-127962029D01*
X108646511Y-128286885D01*
X109220000Y-128400959D01*
X109793489Y-128286885D01*
X110279670Y-127962029D01*
X110490000Y-127647248D01*
X110700330Y-127962029D01*
X111186511Y-128286885D01*
X111760000Y-128400959D01*
X112196668Y-128314100D01*
X112231161Y-128337148D01*
X112522000Y-128395000D01*
X116586000Y-128395000D01*
X116876839Y-128337148D01*
X117123401Y-128172401D01*
X117377401Y-127918401D01*
X117516325Y-127710487D01*
X117725317Y-127671162D01*
X117941441Y-127532090D01*
X118086431Y-127319890D01*
X118137440Y-127068000D01*
X118137440Y-125568000D01*
X118093162Y-125332683D01*
X117954090Y-125116559D01*
X117741890Y-124971569D01*
X117728803Y-124968919D01*
X117941441Y-124832090D01*
X118086431Y-124619890D01*
X118137440Y-124368000D01*
X118137440Y-122868000D01*
X118093162Y-122632683D01*
X117954090Y-122416559D01*
X117850000Y-122345437D01*
X117850000Y-121137217D01*
X117899670Y-121104029D01*
X118224526Y-120617848D01*
X118265000Y-120414371D01*
X118265000Y-128765000D01*
X99735000Y-128765000D01*
X99735000Y-127232027D01*
X100145032Y-127232027D01*
X100393179Y-127761490D01*
X100825053Y-128155688D01*
X101240974Y-128327958D01*
X101473000Y-128206817D01*
X101473000Y-127000000D01*
X100265531Y-127000000D01*
X100145032Y-127232027D01*
X99735000Y-127232027D01*
X99735000Y-116470750D01*
X100340000Y-116470750D01*
X100340000Y-117061309D01*
X100436673Y-117294698D01*
X100615301Y-117473327D01*
X100848690Y-117570000D01*
X101314250Y-117570000D01*
X101473000Y-117411250D01*
X101473000Y-116312000D01*
X100498750Y-116312000D01*
X100340000Y-116470750D01*
X99735000Y-116470750D01*
X99735000Y-107093691D01*
X100340000Y-107093691D01*
X100340000Y-107684250D01*
X100498750Y-107843000D01*
X101473000Y-107843000D01*
X101473000Y-106743750D01*
X101314250Y-106585000D01*
X100848690Y-106585000D01*
X100615301Y-106681673D01*
X100436673Y-106860302D01*
X100340000Y-107093691D01*
X99735000Y-107093691D01*
X99735000Y-100735000D01*
X118265000Y-100735000D01*
X118265000Y-116311183D01*
M02*
