G04 #@! TF.FileFunction,Legend,Top*
%FSLAX46Y46*%
G04 Gerber Fmt 4.6, Leading zero omitted, Abs format (unit mm)*
G04 Created by KiCad (PCBNEW 0.201510090346+6256~30~ubuntu14.04.1-product) date Son 11 Okt 2015 11:49:56 CEST*
%MOMM*%
G01*
G04 APERTURE LIST*
%ADD10C,0.200000*%
%ADD11C,0.150000*%
G04 APERTURE END LIST*
D10*
X134000000Y-84028571D02*
X134357143Y-85028571D01*
X134714285Y-84028571D01*
X135571428Y-83528571D02*
X135714285Y-83528571D01*
X135857142Y-83600000D01*
X135928571Y-83671429D01*
X136000000Y-83814286D01*
X136071428Y-84100000D01*
X136071428Y-84457143D01*
X136000000Y-84742857D01*
X135928571Y-84885714D01*
X135857142Y-84957143D01*
X135714285Y-85028571D01*
X135571428Y-85028571D01*
X135428571Y-84957143D01*
X135357142Y-84885714D01*
X135285714Y-84742857D01*
X135214285Y-84457143D01*
X135214285Y-84100000D01*
X135285714Y-83814286D01*
X135357142Y-83671429D01*
X135428571Y-83600000D01*
X135571428Y-83528571D01*
X136714285Y-84885714D02*
X136785713Y-84957143D01*
X136714285Y-85028571D01*
X136642856Y-84957143D01*
X136714285Y-84885714D01*
X136714285Y-85028571D01*
X138214285Y-85028571D02*
X137357142Y-85028571D01*
X137785714Y-85028571D02*
X137785714Y-83528571D01*
X137642857Y-83742857D01*
X137499999Y-83885714D01*
X137357142Y-83957143D01*
X139857142Y-85028571D02*
X140642856Y-84028571D01*
X139857142Y-84028571D02*
X140642856Y-85028571D01*
X141857142Y-85028571D02*
X141857142Y-84242857D01*
X141785713Y-84100000D01*
X141642856Y-84028571D01*
X141357142Y-84028571D01*
X141214285Y-84100000D01*
X141857142Y-84957143D02*
X141714285Y-85028571D01*
X141357142Y-85028571D01*
X141214285Y-84957143D01*
X141142856Y-84814286D01*
X141142856Y-84671429D01*
X141214285Y-84528571D01*
X141357142Y-84457143D01*
X141714285Y-84457143D01*
X141857142Y-84385714D01*
X143214285Y-85028571D02*
X143214285Y-83528571D01*
X143214285Y-84957143D02*
X143071428Y-85028571D01*
X142785714Y-85028571D01*
X142642856Y-84957143D01*
X142571428Y-84885714D01*
X142499999Y-84742857D01*
X142499999Y-84314286D01*
X142571428Y-84171429D01*
X142642856Y-84100000D01*
X142785714Y-84028571D01*
X143071428Y-84028571D01*
X143214285Y-84100000D01*
X144142857Y-85028571D02*
X143999999Y-84957143D01*
X143928571Y-84885714D01*
X143857142Y-84742857D01*
X143857142Y-84314286D01*
X143928571Y-84171429D01*
X143999999Y-84100000D01*
X144142857Y-84028571D01*
X144357142Y-84028571D01*
X144499999Y-84100000D01*
X144571428Y-84171429D01*
X144642857Y-84314286D01*
X144642857Y-84742857D01*
X144571428Y-84885714D01*
X144499999Y-84957143D01*
X144357142Y-85028571D01*
X144142857Y-85028571D01*
X145142857Y-84028571D02*
X145428571Y-85028571D01*
X145714285Y-84314286D01*
X146000000Y-85028571D01*
X146285714Y-84028571D01*
X139000000Y-87328571D02*
X139000000Y-86542857D01*
X138928571Y-86400000D01*
X138785714Y-86328571D01*
X138500000Y-86328571D01*
X138357143Y-86400000D01*
X139000000Y-87257143D02*
X138857143Y-87328571D01*
X138500000Y-87328571D01*
X138357143Y-87257143D01*
X138285714Y-87114286D01*
X138285714Y-86971429D01*
X138357143Y-86828571D01*
X138500000Y-86757143D01*
X138857143Y-86757143D01*
X139000000Y-86685714D01*
X140357143Y-87328571D02*
X140357143Y-85828571D01*
X140357143Y-87257143D02*
X140214286Y-87328571D01*
X139928572Y-87328571D01*
X139785714Y-87257143D01*
X139714286Y-87185714D01*
X139642857Y-87042857D01*
X139642857Y-86614286D01*
X139714286Y-86471429D01*
X139785714Y-86400000D01*
X139928572Y-86328571D01*
X140214286Y-86328571D01*
X140357143Y-86400000D01*
X141714286Y-87328571D02*
X141714286Y-86542857D01*
X141642857Y-86400000D01*
X141500000Y-86328571D01*
X141214286Y-86328571D01*
X141071429Y-86400000D01*
X141714286Y-87257143D02*
X141571429Y-87328571D01*
X141214286Y-87328571D01*
X141071429Y-87257143D01*
X141000000Y-87114286D01*
X141000000Y-86971429D01*
X141071429Y-86828571D01*
X141214286Y-86757143D01*
X141571429Y-86757143D01*
X141714286Y-86685714D01*
X142428572Y-86328571D02*
X142428572Y-87828571D01*
X142428572Y-86400000D02*
X142571429Y-86328571D01*
X142857143Y-86328571D01*
X143000000Y-86400000D01*
X143071429Y-86471429D01*
X143142858Y-86614286D01*
X143142858Y-87042857D01*
X143071429Y-87185714D01*
X143000000Y-87257143D01*
X142857143Y-87328571D01*
X142571429Y-87328571D01*
X142428572Y-87257143D01*
X143571429Y-86328571D02*
X144142858Y-86328571D01*
X143785715Y-85828571D02*
X143785715Y-87114286D01*
X143857143Y-87257143D01*
X144000001Y-87328571D01*
X144142858Y-87328571D01*
X145214286Y-87257143D02*
X145071429Y-87328571D01*
X144785715Y-87328571D01*
X144642858Y-87257143D01*
X144571429Y-87114286D01*
X144571429Y-86542857D01*
X144642858Y-86400000D01*
X144785715Y-86328571D01*
X145071429Y-86328571D01*
X145214286Y-86400000D01*
X145285715Y-86542857D01*
X145285715Y-86685714D01*
X144571429Y-86828571D01*
X145928572Y-87328571D02*
X145928572Y-86328571D01*
X145928572Y-86614286D02*
X146000000Y-86471429D01*
X146071429Y-86400000D01*
X146214286Y-86328571D01*
X146357143Y-86328571D01*
X135500000Y-94500000D02*
X137300000Y-94500000D01*
X137300000Y-94500000D02*
X137300000Y-93525000D01*
X135500000Y-86525000D02*
X137300000Y-86525000D01*
X137300000Y-86525000D02*
X137300000Y-87475000D01*
X134500000Y-86525000D02*
X134150000Y-86525000D01*
X134150000Y-86525000D02*
X134150000Y-94450000D01*
X134150000Y-94450000D02*
X134150000Y-94475000D01*
X134150000Y-94500000D02*
X134500000Y-94500000D01*
D11*
X147190000Y-96770000D02*
X147190000Y-84070000D01*
X147190000Y-84070000D02*
X152270000Y-84070000D01*
X152270000Y-84070000D02*
X152270000Y-94230000D01*
X147190000Y-96770000D02*
X149730000Y-96770000D01*
X151000000Y-97050000D02*
X152550000Y-97050000D01*
X149730000Y-96770000D02*
X149730000Y-94230000D01*
X149730000Y-94230000D02*
X152270000Y-94230000D01*
X152550000Y-97050000D02*
X152550000Y-95500000D01*
X143100000Y-96450000D02*
X144100000Y-96450000D01*
X144100000Y-94750000D02*
X143100000Y-94750000D01*
X151638000Y-111278000D02*
X150088000Y-111278000D01*
X150088000Y-109728000D02*
X150088000Y-111278000D01*
X152908000Y-110998000D02*
X152908000Y-108458000D01*
X150368000Y-105918000D02*
X150368000Y-108458000D01*
X150368000Y-108458000D02*
X152908000Y-108458000D01*
X152908000Y-108458000D02*
X152908000Y-105918000D01*
X152908000Y-105918000D02*
X150368000Y-105918000D01*
D10*
X148704381Y-108688095D02*
X147704381Y-108688095D01*
X147704381Y-108450000D01*
X147752000Y-108307142D01*
X147847238Y-108211904D01*
X147942476Y-108164285D01*
X148132952Y-108116666D01*
X148275810Y-108116666D01*
X148466286Y-108164285D01*
X148561524Y-108211904D01*
X148656762Y-108307142D01*
X148704381Y-108450000D01*
X148704381Y-108688095D01*
X148704381Y-107164285D02*
X148704381Y-107735714D01*
X148704381Y-107450000D02*
X147704381Y-107450000D01*
X147847238Y-107545238D01*
X147942476Y-107640476D01*
X147990095Y-107735714D01*
X142359143Y-114152381D02*
X141882952Y-114152381D01*
X141882952Y-113152381D01*
X142692476Y-113628571D02*
X143025810Y-113628571D01*
X143168667Y-114152381D02*
X142692476Y-114152381D01*
X142692476Y-113152381D01*
X143168667Y-113152381D01*
X143597238Y-114152381D02*
X143597238Y-113152381D01*
X143835333Y-113152381D01*
X143978191Y-113200000D01*
X144073429Y-113295238D01*
X144121048Y-113390476D01*
X144168667Y-113580952D01*
X144168667Y-113723810D01*
X144121048Y-113914286D01*
X144073429Y-114009524D01*
X143978191Y-114104762D01*
X143835333Y-114152381D01*
X143597238Y-114152381D01*
X135952381Y-91263095D02*
X134952381Y-91263095D01*
X134952381Y-90882142D01*
X135000000Y-90786904D01*
X135047619Y-90739285D01*
X135142857Y-90691666D01*
X135285714Y-90691666D01*
X135380952Y-90739285D01*
X135428571Y-90786904D01*
X135476190Y-90882142D01*
X135476190Y-91263095D01*
X135952381Y-89739285D02*
X135952381Y-90310714D01*
X135952381Y-90025000D02*
X134952381Y-90025000D01*
X135095238Y-90120238D01*
X135190476Y-90215476D01*
X135238095Y-90310714D01*
D11*
X146452381Y-90738095D02*
X145452381Y-90738095D01*
X145452381Y-90357142D01*
X145500000Y-90261904D01*
X145547619Y-90214285D01*
X145642857Y-90166666D01*
X145785714Y-90166666D01*
X145880952Y-90214285D01*
X145928571Y-90261904D01*
X145976190Y-90357142D01*
X145976190Y-90738095D01*
X145547619Y-89785714D02*
X145500000Y-89738095D01*
X145452381Y-89642857D01*
X145452381Y-89404761D01*
X145500000Y-89309523D01*
X145547619Y-89261904D01*
X145642857Y-89214285D01*
X145738095Y-89214285D01*
X145880952Y-89261904D01*
X146452381Y-89833333D01*
X146452381Y-89214285D01*
X143833334Y-93857143D02*
X143785715Y-93904762D01*
X143642858Y-93952381D01*
X143547620Y-93952381D01*
X143404762Y-93904762D01*
X143309524Y-93809524D01*
X143261905Y-93714286D01*
X143214286Y-93523810D01*
X143214286Y-93380952D01*
X143261905Y-93190476D01*
X143309524Y-93095238D01*
X143404762Y-93000000D01*
X143547620Y-92952381D01*
X143642858Y-92952381D01*
X143785715Y-93000000D01*
X143833334Y-93047619D01*
X144785715Y-93952381D02*
X144214286Y-93952381D01*
X144500000Y-93952381D02*
X144500000Y-92952381D01*
X144404762Y-93095238D01*
X144309524Y-93190476D01*
X144214286Y-93238095D01*
X146990381Y-110466095D02*
X145990381Y-110466095D01*
X145990381Y-110085142D01*
X146038000Y-109989904D01*
X146085619Y-109942285D01*
X146180857Y-109894666D01*
X146323714Y-109894666D01*
X146418952Y-109942285D01*
X146466571Y-109989904D01*
X146514190Y-110085142D01*
X146514190Y-110466095D01*
X145990381Y-109561333D02*
X145990381Y-108942285D01*
X146371333Y-109275619D01*
X146371333Y-109132761D01*
X146418952Y-109037523D01*
X146466571Y-108989904D01*
X146561810Y-108942285D01*
X146799905Y-108942285D01*
X146895143Y-108989904D01*
X146942762Y-109037523D01*
X146990381Y-109132761D01*
X146990381Y-109418476D01*
X146942762Y-109513714D01*
X146895143Y-109561333D01*
M02*
