G04 #@! TF.FileFunction,Soldermask,Top*
%FSLAX46Y46*%
G04 Gerber Fmt 4.6, Leading zero omitted, Abs format (unit mm)*
G04 Created by KiCad (PCBNEW 0.201509061501+6161~29~ubuntu14.04.1-product) date Sam 12 Sep 2015 09:24:29 CEST*
%MOMM*%
G01*
G04 APERTURE LIST*
%ADD10C,0.100000*%
%ADD11R,1.650000X1.900000*%
%ADD12R,1.900000X1.650000*%
%ADD13R,2.127200X2.127200*%
%ADD14O,2.127200X2.127200*%
%ADD15R,1.700000X1.900000*%
%ADD16R,1.900000X1.700000*%
%ADD17O,1.026000X0.526000*%
%ADD18O,0.526000X1.026000*%
%ADD19R,2.226000X2.226000*%
G04 APERTURE END LIST*
D10*
D11*
X101600000Y-110470000D03*
X101600000Y-107970000D03*
X101600000Y-113685000D03*
X101600000Y-116185000D03*
D12*
X106787000Y-117094000D03*
X104287000Y-117094000D03*
X106700000Y-106045000D03*
X109200000Y-106045000D03*
X106700000Y-107950000D03*
X109200000Y-107950000D03*
D13*
X111760000Y-124333000D03*
D14*
X111760000Y-126873000D03*
X109220000Y-124333000D03*
X109220000Y-126873000D03*
X106680000Y-124333000D03*
X106680000Y-126873000D03*
X104140000Y-124333000D03*
X104140000Y-126873000D03*
X101600000Y-124333000D03*
X101600000Y-126873000D03*
D13*
X106045000Y-102870000D03*
D14*
X108585000Y-102870000D03*
D13*
X113665000Y-102870000D03*
D14*
X116205000Y-102870000D03*
X113665000Y-105410000D03*
X116205000Y-105410000D03*
X113665000Y-107950000D03*
X116205000Y-107950000D03*
X113665000Y-110490000D03*
X116205000Y-110490000D03*
X113665000Y-113030000D03*
X116205000Y-113030000D03*
D15*
X116840000Y-123618000D03*
X116840000Y-126318000D03*
X114935000Y-123618000D03*
X114935000Y-126318000D03*
D16*
X108030000Y-121412000D03*
X105330000Y-121412000D03*
X108030000Y-119380000D03*
X105330000Y-119380000D03*
D17*
X104545000Y-111645000D03*
X104545000Y-112145000D03*
X104545000Y-112645000D03*
X104545000Y-113145000D03*
D18*
X105295000Y-113895000D03*
X105795000Y-113895000D03*
X106295000Y-113895000D03*
X106795000Y-113895000D03*
D17*
X107545000Y-113145000D03*
X107545000Y-112645000D03*
X107545000Y-112145000D03*
X107545000Y-111645000D03*
D18*
X106795000Y-110895000D03*
X106295000Y-110895000D03*
X105795000Y-110895000D03*
X105295000Y-110895000D03*
D19*
X106045000Y-112395000D03*
D13*
X116840000Y-117475000D03*
D14*
X116840000Y-120015000D03*
X114300000Y-117475000D03*
X114300000Y-120015000D03*
X111760000Y-117475000D03*
X111760000Y-120015000D03*
M02*
