G04 #@! TF.FileFunction,Legend,Top*
%FSLAX46Y46*%
G04 Gerber Fmt 4.6, Leading zero omitted, Abs format (unit mm)*
G04 Created by KiCad (PCBNEW 0.201509061501+6161~29~ubuntu14.04.1-product) date Sam 12 Sep 2015 09:24:29 CEST*
%MOMM*%
G01*
G04 APERTURE LIST*
%ADD10C,0.100000*%
%ADD11C,0.150000*%
G04 APERTURE END LIST*
D10*
D11*
X100750000Y-108720000D02*
X100750000Y-109720000D01*
X102450000Y-109720000D02*
X102450000Y-108720000D01*
X102450000Y-115435000D02*
X102450000Y-114435000D01*
X100750000Y-114435000D02*
X100750000Y-115435000D01*
X105037000Y-117944000D02*
X106037000Y-117944000D01*
X106037000Y-116244000D02*
X105037000Y-116244000D01*
X108450000Y-105195000D02*
X107450000Y-105195000D01*
X107450000Y-106895000D02*
X108450000Y-106895000D01*
X108450000Y-107100000D02*
X107450000Y-107100000D01*
X107450000Y-108800000D02*
X108450000Y-108800000D01*
X113030000Y-128143000D02*
X100330000Y-128143000D01*
X100330000Y-128143000D02*
X100330000Y-123063000D01*
X100330000Y-123063000D02*
X110490000Y-123063000D01*
X113030000Y-128143000D02*
X113030000Y-125603000D01*
X113310000Y-124333000D02*
X113310000Y-122783000D01*
X113030000Y-125603000D02*
X110490000Y-125603000D01*
X110490000Y-125603000D02*
X110490000Y-123063000D01*
X113310000Y-122783000D02*
X111760000Y-122783000D01*
X104495000Y-102870000D02*
X104495000Y-101320000D01*
X106045000Y-101320000D02*
X104495000Y-101320000D01*
X104775000Y-104140000D02*
X107315000Y-104140000D01*
X109855000Y-101600000D02*
X107315000Y-101600000D01*
X107315000Y-101600000D02*
X107315000Y-104140000D01*
X107315000Y-104140000D02*
X109855000Y-104140000D01*
X109855000Y-104140000D02*
X109855000Y-101600000D01*
X117475000Y-101600000D02*
X117475000Y-114300000D01*
X117475000Y-114300000D02*
X112395000Y-114300000D01*
X112395000Y-114300000D02*
X112395000Y-104140000D01*
X117475000Y-101600000D02*
X114935000Y-101600000D01*
X113665000Y-101320000D02*
X112115000Y-101320000D01*
X114935000Y-101600000D02*
X114935000Y-104140000D01*
X114935000Y-104140000D02*
X112395000Y-104140000D01*
X112115000Y-101320000D02*
X112115000Y-102870000D01*
X115965000Y-125568000D02*
X115965000Y-124368000D01*
X117715000Y-124368000D02*
X117715000Y-125568000D01*
X114060000Y-125568000D02*
X114060000Y-124368000D01*
X115810000Y-124368000D02*
X115810000Y-125568000D01*
X106080000Y-120537000D02*
X107280000Y-120537000D01*
X107280000Y-122287000D02*
X106080000Y-122287000D01*
X106080000Y-118505000D02*
X107280000Y-118505000D01*
X107280000Y-120255000D02*
X106080000Y-120255000D01*
X107695000Y-110745000D02*
X107695000Y-111270000D01*
X104395000Y-114045000D02*
X104395000Y-113520000D01*
X107695000Y-114045000D02*
X107695000Y-113520000D01*
X104395000Y-110745000D02*
X104920000Y-110745000D01*
X104395000Y-114045000D02*
X104920000Y-114045000D01*
X107695000Y-114045000D02*
X107170000Y-114045000D01*
X107695000Y-110745000D02*
X107170000Y-110745000D01*
X115570000Y-116205000D02*
X110490000Y-116205000D01*
X118390000Y-115925000D02*
X118390000Y-117475000D01*
X118110000Y-118745000D02*
X115570000Y-118745000D01*
X115570000Y-118745000D02*
X115570000Y-116205000D01*
X110490000Y-116205000D02*
X110490000Y-121285000D01*
X110490000Y-121285000D02*
X115570000Y-121285000D01*
X118390000Y-115925000D02*
X116840000Y-115925000D01*
X118110000Y-121285000D02*
X118110000Y-118745000D01*
X115570000Y-121285000D02*
X118110000Y-121285000D01*
X101957143Y-105830666D02*
X102004762Y-105878285D01*
X102052381Y-106021142D01*
X102052381Y-106116380D01*
X102004762Y-106259238D01*
X101909524Y-106354476D01*
X101814286Y-106402095D01*
X101623810Y-106449714D01*
X101480952Y-106449714D01*
X101290476Y-106402095D01*
X101195238Y-106354476D01*
X101100000Y-106259238D01*
X101052381Y-106116380D01*
X101052381Y-106021142D01*
X101100000Y-105878285D01*
X101147619Y-105830666D01*
X102052381Y-104878285D02*
X102052381Y-105449714D01*
X102052381Y-105164000D02*
X101052381Y-105164000D01*
X101195238Y-105259238D01*
X101290476Y-105354476D01*
X101338095Y-105449714D01*
X101957143Y-118530666D02*
X102004762Y-118578285D01*
X102052381Y-118721142D01*
X102052381Y-118816380D01*
X102004762Y-118959238D01*
X101909524Y-119054476D01*
X101814286Y-119102095D01*
X101623810Y-119149714D01*
X101480952Y-119149714D01*
X101290476Y-119102095D01*
X101195238Y-119054476D01*
X101100000Y-118959238D01*
X101052381Y-118816380D01*
X101052381Y-118721142D01*
X101100000Y-118578285D01*
X101147619Y-118530666D01*
X101147619Y-118149714D02*
X101100000Y-118102095D01*
X101052381Y-118006857D01*
X101052381Y-117768761D01*
X101100000Y-117673523D01*
X101147619Y-117625904D01*
X101242857Y-117578285D01*
X101338095Y-117578285D01*
X101480952Y-117625904D01*
X102052381Y-118197333D01*
X102052381Y-117578285D01*
X103719334Y-115673143D02*
X103671715Y-115720762D01*
X103528858Y-115768381D01*
X103433620Y-115768381D01*
X103290762Y-115720762D01*
X103195524Y-115625524D01*
X103147905Y-115530286D01*
X103100286Y-115339810D01*
X103100286Y-115196952D01*
X103147905Y-115006476D01*
X103195524Y-114911238D01*
X103290762Y-114816000D01*
X103433620Y-114768381D01*
X103528858Y-114768381D01*
X103671715Y-114816000D01*
X103719334Y-114863619D01*
X104052667Y-114768381D02*
X104671715Y-114768381D01*
X104338381Y-115149333D01*
X104481239Y-115149333D01*
X104576477Y-115196952D01*
X104624096Y-115244571D01*
X104671715Y-115339810D01*
X104671715Y-115577905D01*
X104624096Y-115673143D01*
X104576477Y-115720762D01*
X104481239Y-115768381D01*
X104195524Y-115768381D01*
X104100286Y-115720762D01*
X104052667Y-115673143D01*
X104333334Y-106357143D02*
X104285715Y-106404762D01*
X104142858Y-106452381D01*
X104047620Y-106452381D01*
X103904762Y-106404762D01*
X103809524Y-106309524D01*
X103761905Y-106214286D01*
X103714286Y-106023810D01*
X103714286Y-105880952D01*
X103761905Y-105690476D01*
X103809524Y-105595238D01*
X103904762Y-105500000D01*
X104047620Y-105452381D01*
X104142858Y-105452381D01*
X104285715Y-105500000D01*
X104333334Y-105547619D01*
X105190477Y-105785714D02*
X105190477Y-106452381D01*
X104952381Y-105404762D02*
X104714286Y-106119048D01*
X105333334Y-106119048D01*
X104333334Y-108357143D02*
X104285715Y-108404762D01*
X104142858Y-108452381D01*
X104047620Y-108452381D01*
X103904762Y-108404762D01*
X103809524Y-108309524D01*
X103761905Y-108214286D01*
X103714286Y-108023810D01*
X103714286Y-107880952D01*
X103761905Y-107690476D01*
X103809524Y-107595238D01*
X103904762Y-107500000D01*
X104047620Y-107452381D01*
X104142858Y-107452381D01*
X104285715Y-107500000D01*
X104333334Y-107547619D01*
X105238096Y-107452381D02*
X104761905Y-107452381D01*
X104714286Y-107928571D01*
X104761905Y-107880952D01*
X104857143Y-107833333D01*
X105095239Y-107833333D01*
X105190477Y-107880952D01*
X105238096Y-107928571D01*
X105285715Y-108023810D01*
X105285715Y-108261905D01*
X105238096Y-108357143D01*
X105190477Y-108404762D01*
X105095239Y-108452381D01*
X104857143Y-108452381D01*
X104761905Y-108404762D01*
X104714286Y-108357143D01*
X100099905Y-122118381D02*
X100099905Y-121118381D01*
X100480858Y-121118381D01*
X100576096Y-121166000D01*
X100623715Y-121213619D01*
X100671334Y-121308857D01*
X100671334Y-121451714D01*
X100623715Y-121546952D01*
X100576096Y-121594571D01*
X100480858Y-121642190D01*
X100099905Y-121642190D01*
X101623715Y-122118381D02*
X101052286Y-122118381D01*
X101338000Y-122118381D02*
X101338000Y-121118381D01*
X101242762Y-121261238D01*
X101147524Y-121356476D01*
X101052286Y-121404095D01*
X102261905Y-101952381D02*
X102261905Y-100952381D01*
X102642858Y-100952381D01*
X102738096Y-101000000D01*
X102785715Y-101047619D01*
X102833334Y-101142857D01*
X102833334Y-101285714D01*
X102785715Y-101380952D01*
X102738096Y-101428571D01*
X102642858Y-101476190D01*
X102261905Y-101476190D01*
X103214286Y-101047619D02*
X103261905Y-101000000D01*
X103357143Y-100952381D01*
X103595239Y-100952381D01*
X103690477Y-101000000D01*
X103738096Y-101047619D01*
X103785715Y-101142857D01*
X103785715Y-101238095D01*
X103738096Y-101380952D01*
X103166667Y-101952381D01*
X103785715Y-101952381D01*
X111452381Y-114238095D02*
X110452381Y-114238095D01*
X110452381Y-113857142D01*
X110500000Y-113761904D01*
X110547619Y-113714285D01*
X110642857Y-113666666D01*
X110785714Y-113666666D01*
X110880952Y-113714285D01*
X110928571Y-113761904D01*
X110976190Y-113857142D01*
X110976190Y-114238095D01*
X110452381Y-113333333D02*
X110452381Y-112714285D01*
X110833333Y-113047619D01*
X110833333Y-112904761D01*
X110880952Y-112809523D01*
X110928571Y-112761904D01*
X111023810Y-112714285D01*
X111261905Y-112714285D01*
X111357143Y-112761904D01*
X111404762Y-112809523D01*
X111452381Y-112904761D01*
X111452381Y-113190476D01*
X111404762Y-113285714D01*
X111357143Y-113333333D01*
X117292381Y-128436666D02*
X116816190Y-128770000D01*
X117292381Y-129008095D02*
X116292381Y-129008095D01*
X116292381Y-128627142D01*
X116340000Y-128531904D01*
X116387619Y-128484285D01*
X116482857Y-128436666D01*
X116625714Y-128436666D01*
X116720952Y-128484285D01*
X116768571Y-128531904D01*
X116816190Y-128627142D01*
X116816190Y-129008095D01*
X117292381Y-127484285D02*
X117292381Y-128055714D01*
X117292381Y-127770000D02*
X116292381Y-127770000D01*
X116435238Y-127865238D01*
X116530476Y-127960476D01*
X116578095Y-128055714D01*
X115514381Y-128436666D02*
X115038190Y-128770000D01*
X115514381Y-129008095D02*
X114514381Y-129008095D01*
X114514381Y-128627142D01*
X114562000Y-128531904D01*
X114609619Y-128484285D01*
X114704857Y-128436666D01*
X114847714Y-128436666D01*
X114942952Y-128484285D01*
X114990571Y-128531904D01*
X115038190Y-128627142D01*
X115038190Y-129008095D01*
X114609619Y-128055714D02*
X114562000Y-128008095D01*
X114514381Y-127912857D01*
X114514381Y-127674761D01*
X114562000Y-127579523D01*
X114609619Y-127531904D01*
X114704857Y-127484285D01*
X114800095Y-127484285D01*
X114942952Y-127531904D01*
X115514381Y-128103333D01*
X115514381Y-127484285D01*
X103211334Y-121864381D02*
X102878000Y-121388190D01*
X102639905Y-121864381D02*
X102639905Y-120864381D01*
X103020858Y-120864381D01*
X103116096Y-120912000D01*
X103163715Y-120959619D01*
X103211334Y-121054857D01*
X103211334Y-121197714D01*
X103163715Y-121292952D01*
X103116096Y-121340571D01*
X103020858Y-121388190D01*
X102639905Y-121388190D01*
X103544667Y-120864381D02*
X104163715Y-120864381D01*
X103830381Y-121245333D01*
X103973239Y-121245333D01*
X104068477Y-121292952D01*
X104116096Y-121340571D01*
X104163715Y-121435810D01*
X104163715Y-121673905D01*
X104116096Y-121769143D01*
X104068477Y-121816762D01*
X103973239Y-121864381D01*
X103687524Y-121864381D01*
X103592286Y-121816762D01*
X103544667Y-121769143D01*
X103211334Y-119832381D02*
X102878000Y-119356190D01*
X102639905Y-119832381D02*
X102639905Y-118832381D01*
X103020858Y-118832381D01*
X103116096Y-118880000D01*
X103163715Y-118927619D01*
X103211334Y-119022857D01*
X103211334Y-119165714D01*
X103163715Y-119260952D01*
X103116096Y-119308571D01*
X103020858Y-119356190D01*
X102639905Y-119356190D01*
X104068477Y-119165714D02*
X104068477Y-119832381D01*
X103830381Y-118784762D02*
X103592286Y-119499048D01*
X104211334Y-119499048D01*
X108238095Y-109452381D02*
X108238095Y-110261905D01*
X108285714Y-110357143D01*
X108333333Y-110404762D01*
X108428571Y-110452381D01*
X108619048Y-110452381D01*
X108714286Y-110404762D01*
X108761905Y-110357143D01*
X108809524Y-110261905D01*
X108809524Y-109452381D01*
X109809524Y-110452381D02*
X109238095Y-110452381D01*
X109523809Y-110452381D02*
X109523809Y-109452381D01*
X109428571Y-109595238D01*
X109333333Y-109690476D01*
X109238095Y-109738095D01*
X109926381Y-117578095D02*
X108926381Y-117578095D01*
X108926381Y-117197142D01*
X108974000Y-117101904D01*
X109021619Y-117054285D01*
X109116857Y-117006666D01*
X109259714Y-117006666D01*
X109354952Y-117054285D01*
X109402571Y-117101904D01*
X109450190Y-117197142D01*
X109450190Y-117578095D01*
X109259714Y-116149523D02*
X109926381Y-116149523D01*
X108878762Y-116387619D02*
X109593048Y-116625714D01*
X109593048Y-116006666D01*
M02*
